<svg display="none" xmlns="http://www.w3.org/2000/svg">

  <symbol id="header-logo" width="100%" viewBox="0 0 145 40">
    <g>
      <path d="M106.987 22.919V34.9446C106.987 36.1386 107.964 37.1621 109.238 37.1621C110.428 37.1621 111.489 36.1812 111.489 34.9446V22.919C111.489 21.725 110.513 20.7015 109.238 20.7015C107.964 20.7015 106.987 21.725 106.987 22.919ZM109.281 16.693C110.725 16.693 111.872 15.5416 111.872 14.0917C111.872 12.6418 110.725 11.4904 109.281 11.4904C107.837 11.4904 106.69 12.6418 106.69 14.0917C106.69 15.5416 107.837 16.693 109.281 16.693ZM88.0448 13.3667C86.6857 13.3667 85.5814 14.4328 85.5814 15.7548V34.7314C85.5814 36.0533 86.6857 37.1194 88.0448 37.1194C89.3615 37.1194 90.5082 36.0533 90.5082 34.7314V29.742H95.7748C97.6435 29.742 99.4698 29.4435 101.126 28.1642C102.995 26.7143 104.227 24.3689 104.227 21.5544C104.227 18.7825 103.122 16.565 101.381 15.1151C99.6822 13.7505 97.7285 13.3667 95.7748 13.3667H88.0448ZM99.215 21.5544C99.215 23.0896 98.6204 24.1557 97.686 24.7953C96.964 25.2644 95.9871 25.435 95.0527 25.435H90.5082V17.6738H95.1377C96.1145 17.6738 97.0064 17.8444 97.7285 18.3561C98.6629 18.9531 99.215 19.9766 99.215 21.5544ZM72.3301 20.7015C70.7586 20.7015 69.3995 21.3412 68.4651 22.4925C68.2528 21.5117 67.3609 20.7015 66.2566 20.7015C64.9824 20.7015 64.0056 21.6823 64.0056 22.919V34.9446C64.0056 36.1386 64.9824 37.1621 66.2566 37.1621C67.4458 37.1621 68.5076 36.1386 68.5076 34.9446V29.0171C68.5076 26.8422 69.1447 24.6674 71.4807 24.6674C72.8823 24.6674 73.3494 25.4776 74.4537 25.4776C75.558 25.4776 76.4074 24.5821 76.4074 23.3881C76.4074 22.4499 75.8553 21.7676 75.0908 21.3412C74.3263 20.8721 73.2645 20.7015 72.3301 20.7015ZM44.2985 29.9552C44.2985 32.0448 44.7657 33.452 45.6576 34.6461C46.9742 36.3518 49.2677 37.1194 52.0709 37.1194C54.8316 37.1194 57.0826 36.3518 58.4417 34.6461C59.3761 33.4947 59.8008 32.0448 59.8008 29.9552V22.8763C59.8008 21.6823 58.824 20.6589 57.5498 20.6589C56.2756 20.6589 55.2988 21.6823 55.2988 22.8763V29.6994C55.2988 30.5949 55.1714 31.2346 54.874 31.8316C54.4493 32.6844 53.5574 33.2815 52.1134 33.2815C50.6693 33.2815 49.7774 32.6844 49.3102 31.8316C49.0129 31.2346 48.8855 30.5949 48.8855 29.6994V22.8763C48.8855 21.6823 47.9086 20.6589 46.6344 20.6589C45.3603 20.6589 44.3834 21.6823 44.3834 22.8763V29.9552H44.2985ZM28.5413 28.9318C28.5413 26.3731 30.0703 24.5395 32.5337 24.5395C34.9971 24.5395 36.5261 26.3731 36.5261 28.9318C36.5261 31.4904 34.9971 33.3241 32.5337 33.3241C30.1128 33.3241 28.5413 31.4904 28.5413 28.9318ZM24.0817 28.9318C24.0817 34.0917 27.8193 37.1194 32.5337 37.1194C37.2481 37.1194 41.0281 34.0491 41.0281 28.9318C41.0281 23.7719 37.2481 20.7015 32.5337 20.7015C27.8193 20.7015 24.0817 23.7719 24.0817 28.9318ZM0 34.7314C0 36.0533 1.10428 37.1194 2.46339 37.1194C3.78002 37.1194 4.92677 36.0533 4.92677 34.7314V27.1834H15.5023V34.7314C15.5023 36.0533 16.6491 37.1194 17.9657 37.1194C19.2824 37.1194 20.4291 36.0533 20.4291 34.7314V15.4563C20.4291 14.1343 19.3248 13.0682 17.9657 13.0682C16.6491 13.0682 15.5023 14.1343 15.5023 15.4563V22.8337H4.92677V15.4563C4.92677 14.1343 3.8225 13.0682 2.46339 13.0682C1.10428 13.0682 0 14.1343 0 15.4563V34.7314Z"/>
      <path d="M140.456 13.4947C140.456 14.049 140.159 14.5181 139.691 14.7314L122.108 21.1279C121.386 21.3838 120.876 22.0235 120.749 22.7484C120.664 23.1749 120.706 23.6013 120.834 24.0277C121.258 25.1791 122.533 25.8188 123.679 25.3923L138.927 19.8486C139.564 19.7633 140.201 20.1045 140.413 20.7441C140.456 20.9147 140.498 21.0427 140.498 21.2132C140.498 21.7676 140.159 22.2793 139.606 22.4925L138.672 22.8337L122.065 28.8891C121.343 29.145 120.834 29.7847 120.706 30.5096C120.621 30.936 120.664 31.3625 120.791 31.7889C121.216 32.9403 122.49 33.58 123.637 33.1535L138.672 27.6525C139.394 27.3966 140.159 27.7804 140.413 28.4627C140.456 28.6333 140.498 28.7612 140.498 28.9318C140.498 29.4435 140.201 29.9552 139.734 30.1685L122.108 36.6077C121.386 36.8635 120.876 37.5032 120.749 38.2282C120.664 38.6546 120.706 39.081 120.834 39.5075C121.258 40.6589 122.533 41.2985 123.679 40.8721L142.537 34.0064C142.749 33.9211 142.962 33.7932 143.132 33.6653C144.193 33.4947 145.085 32.5992 145.085 31.4904V8.42005C145.128 8.03626 145.085 7.65246 144.958 7.31131C144.618 6.41579 143.939 5.98935 143.089 5.60555L132.131 1.59702C129.073 0.488283 129.073 0.488283 126.355 5.13647L121.301 13.9638C120.451 14.8166 120.494 16.2239 121.386 17.1194C122.193 17.9296 123.764 17.6738 124.104 17.5459L138.799 12.1727C139.479 11.9595 140.244 12.3006 140.498 13.0256C140.413 13.1535 140.456 13.3241 140.456 13.4947Z"/>
    </g>
  </symbol>
  
  <!-- next sprite - copy symbol -->
</svg>