<?xml version="1.0" standalone="no"?>
<!DOCTYPE svg PUBLIC "-//W3C//DTD SVG 20010904//EN"
 "http://www.w3.org/TR/2001/REC-SVG-20010904/DTD/svg10.dtd">
<svg version="1.0" xmlns="http://www.w3.org/2000/svg"
 width="573.000000pt" height="573.000000pt" viewBox="0 0 573.000000 573.000000"
 preserveAspectRatio="xMidYMid meet">
<metadata>
Created by potrace 1.14, written by Peter Selinger 2001-2017
</metadata>
<g transform="translate(0.000000,573.000000) scale(0.100000,-0.100000)"
fill="#000000" stroke="none">
<path d="M1960 4504 c-19 -8 -331 -186 -692 -395 -432 -250 -663 -390 -675
-407 -17 -25 -18 -73 -21 -830 -3 -918 -10 -848 87 -906 31 -18 346 -194 700
-391 434 -242 653 -358 673 -358 35 0 113 40 461 240 648 371 937 545 959 576
l23 32 3 780 c2 562 0 792 -9 822 -6 22 -25 55 -43 72 -17 16 -299 180 -626
364 -328 183 -616 347 -640 363 -80 55 -137 65 -200 38z m128 -192 c32 -21
320 -184 640 -362 l582 -325 0 -560 c0 -308 3 -644 7 -746 l6 -185 -334 -196
c-542 -318 -862 -499 -868 -492 -3 3 -8 332 -11 731 l-5 725 -35 31 c-19 18
-308 187 -642 377 -368 208 -603 347 -595 352 146 87 1184 687 1189 687 4 1
34 -16 66 -37z m-740 -1152 l589 -334 6 -690 c3 -380 5 -691 4 -692 -1 -1
-273 149 -604 334 l-603 335 0 695 c0 440 4 692 10 690 5 -1 274 -154 598
-338z"/>
<path d="M4223 3660 c-55 -22 -54 7 -51 -799 l3 -743 24 -19 c32 -26 77 -24
106 6 l25 24 0 735 c0 528 -3 742 -11 760 -7 14 -25 30 -42 36 -16 5 -30 10
-31 9 -1 0 -11 -4 -23 -9z"/>
</g>
</svg>
