<?xml version="1.0" encoding="UTF-8"?> <svg xmlns="http://www.w3.org/2000/svg" width="70" height="70" viewBox="0 0 70 70" fill="none"><circle cx="35" cy="35" r="35" fill="#C59D5F"></circle><path d="M7.14196 23.8461C5.76019 27.2941 5 31.0583 5 35C5 51.5685 18.4315 65 35 65C51.5685 65 65 51.5685 65 35C65 18.4315 51.5685 5 35 5C30.0056 5 25.2962 6.22046 21.1539 8.37943" stroke="white" stroke-linecap="round"></path><g clip-path="url(#clip0_54_398)"><path d="M49.7791 45.8578L48.3259 45.3533C49.1394 44.7089 49.6626 43.7136 49.6626 42.5976V41.5325C49.6626 39.5945 48.0858 38.0177 46.1478 38.0177C44.2098 38.0177 42.633 39.5945 42.633 41.5325V42.5976C42.633 43.7136 43.1565 44.7089 43.9701 45.3533L42.5166 45.8578C41.5844 46.1816 40.8008 46.7755 40.2397 47.5327H36.3137V45.9833C36.3137 43.944 35.0192 42.1244 33.0928 41.4556L31.6393 40.9511C32.4528 40.3067 32.9763 39.3113 32.9763 38.1954V37.1303C32.9763 35.192 31.3995 33.6155 29.4615 33.6155C27.5235 33.6155 25.9467 35.1923 25.9467 37.1303V38.1954C25.9467 39.3113 26.4702 40.3067 27.2835 40.9511L25.8303 41.4556C23.9038 42.1244 22.6093 43.944 22.6093 45.9833V47.5327H17.5326C17.2384 47.5327 17 47.7711 17 48.0652V52.4675C17 52.7616 17.2384 53 17.5326 53H39.6865C39.7104 53 39.734 52.9978 39.7574 52.9948C39.7807 52.9978 39.8043 53 39.8285 53H52.4674C52.7616 53 53 52.7616 53 52.4675V50.3856C53 48.3465 51.7058 46.5269 49.7791 45.8578ZM43.6982 41.5325C43.6982 40.1817 44.7971 39.0828 46.1478 39.0828C47.4986 39.0828 48.5975 40.1817 48.5975 41.5325V42.5976C48.5975 43.9484 47.4986 45.0473 46.1478 45.0473C44.7971 45.0473 43.6982 43.9484 43.6982 42.5976V41.5325ZM27.0118 37.1303C27.0118 35.7795 28.1107 34.6806 29.4615 34.6806C30.8123 34.6806 31.9112 35.7795 31.9112 37.1303V38.1954C31.9112 39.5462 30.8123 40.6451 29.4615 40.6451C28.1107 40.6451 27.0118 39.5462 27.0118 38.1954V37.1303ZM30.5788 41.7102L31.0963 41.8898L29.4615 44.7262L27.8268 41.8898L28.3442 41.7102H30.5788ZM23.6745 45.9833C23.6745 44.3972 24.6814 42.9819 26.1796 42.4617L26.8026 42.2455L29.0001 46.0589C29.0951 46.2239 29.2712 46.3256 29.4615 46.3256C29.6519 46.3256 29.8279 46.2239 29.9229 46.0589L32.1205 42.2455L32.7434 42.4617C34.2417 42.9819 35.2483 44.3972 35.2483 45.9833V47.5327H23.6745V45.9833ZM18.0651 48.5978H39.6428C39.4182 49.1551 39.2959 49.7599 39.2959 50.3856V51.9349H18.0651V48.5978ZM51.9349 51.9349H40.3611V50.3856C40.3611 48.7994 41.3677 47.3844 42.8659 46.8639L45.0305 46.1124H47.2651L49.4297 46.8639C50.9283 47.3844 51.9349 48.7994 51.9349 50.3856V51.9349Z" fill="white"></path><path d="M49.6272 20.8342H44.2175C43.9234 20.8342 43.685 21.0729 43.685 21.3668C43.685 21.6609 43.9234 21.8994 44.2175 21.8994H49.6272C50.8997 21.8994 51.9349 22.9345 51.9349 24.2073V31.5918C51.9349 32.8643 50.8997 33.8994 49.6272 33.8994H42.3136C42.0194 33.8994 41.781 34.1378 41.781 34.432V36.6968L39.1399 34.0555C39.0399 33.9555 38.9045 33.8994 38.7634 33.8994H34.432C33.1595 33.8994 32.1241 32.8643 32.1241 31.5918V24.207C32.1241 22.9345 33.1592 21.8994 34.432 21.8994H41.7278C42.0219 21.8994 42.2603 21.6609 42.2603 21.3668C42.2603 21.0726 42.0219 20.8342 41.7278 20.8342H38.9408V20.3728C38.9408 18.5131 37.4277 17 35.568 17H20.3728C18.5131 17 17 18.5131 17 20.3728V21.5503C17 21.8444 17.2384 22.0828 17.5326 22.0828C17.8267 22.0828 18.0651 21.8444 18.0651 21.5503V20.3728C18.0651 19.1003 19.1003 18.0651 20.3728 18.0651H35.568C36.8405 18.0651 37.8757 19.1003 37.8757 20.3728V20.8342H34.432C32.5723 20.8342 31.0592 22.3473 31.0592 24.207V30.0649H25.4853C25.1911 30.0649 24.9527 30.3033 24.9527 30.5975V32.8623L22.3116 30.2209C22.2116 30.121 22.0762 30.0649 21.9351 30.0649H20.3728C19.1003 30.0649 18.0651 29.0298 18.0651 27.7573V24.0266C18.0651 23.7324 17.8267 23.494 17.5326 23.494C17.2384 23.494 17 23.7324 17 24.0266V27.7573C17 29.6172 18.5131 31.1301 20.3728 31.1301H21.7142L25.1087 34.5246C25.2106 34.6265 25.3469 34.6806 25.4853 34.6803C25.554 34.6803 25.6232 34.6671 25.6891 34.6399C25.8879 34.5575 26.0179 34.3633 26.0179 34.148V31.1301H31.0592V31.5918C31.0592 33.4515 32.5723 34.9643 34.432 34.9643H38.5428L41.937 38.3588C42.0389 38.4607 42.1752 38.5148 42.3136 38.5148C42.3823 38.5148 42.4515 38.5016 42.5174 38.4742C42.7162 38.3918 42.8462 38.1976 42.8462 37.9822V34.9643H49.6272C51.4869 34.9643 53 33.4515 53 31.5918V24.207C53 22.3473 51.4869 20.8342 49.6272 20.8342Z" fill="white"></path></g><defs><clipPath id="clip0_54_398"><rect width="36" height="36" fill="white" transform="translate(17 17)"></rect></clipPath></defs></svg> 