<?xml version="1.0" encoding="UTF-8"?> <svg xmlns="http://www.w3.org/2000/svg" width="70" height="70" viewBox="0 0 70 70" fill="none"><circle cx="35" cy="35" r="35" fill="#C59D5F"></circle><path d="M46.1538 7.14196C42.7059 5.76019 38.9417 5 35 5C18.4315 5 5 18.4315 5 35C5 51.5685 18.4315 65 35 65C51.5685 65 65 51.5685 65 35C65 30.0056 63.7795 25.2962 61.6206 21.1538" stroke="white" stroke-linecap="round"></path><g clip-path="url(#clip0_54_362)"><path d="M28.3023 31.3509C28.0199 31.2753 27.7291 31.4427 27.6532 31.7253C27.4702 32.4072 27.7669 33.1348 28.3749 33.4946C28.6184 33.6388 28.8968 33.715 29.1799 33.715H41.0982C41.3814 33.715 41.6597 33.6387 41.9032 33.4946C42.5019 33.1403 42.8011 32.4222 42.6309 31.7481C42.5592 31.4644 42.2709 31.2924 41.9874 31.3641C41.7037 31.4358 41.5318 31.7239 41.6035 32.0076C41.6595 32.2295 41.5608 32.4659 41.3635 32.5828C41.2833 32.6302 41.1916 32.6553 41.0983 32.6553H29.1799C29.0866 32.6553 28.9949 32.6302 28.9147 32.5828C28.7143 32.4641 28.6164 32.2245 28.6767 32C28.7525 31.7174 28.5849 31.4268 28.3023 31.3509Z" fill="white"></path><path d="M45.2614 51.3713L40.8179 35.8343H41.0975C41.7602 35.8343 42.4118 35.6559 42.982 35.3185C44.5151 34.4111 45.1841 32.5381 44.5726 30.8648L42.7112 25.7703C42.6107 25.4954 42.3065 25.354 42.0317 25.4544C41.7569 25.5548 41.6155 25.8591 41.7159 26.1339L43.5773 31.2284C44.0136 32.4225 43.5362 33.7591 42.4422 34.4065C42.0354 34.6473 41.5704 34.7746 41.0975 34.7746H29.1792C28.7064 34.7746 28.2414 34.6473 27.8345 34.4065C26.7405 33.759 26.2631 32.4225 26.6994 31.2284L30.5633 20.6537C31.1302 19.1021 32.6209 18.0597 34.2729 18.0597H36.0039C37.6558 18.0597 39.1466 19.1021 39.7135 20.6537L40.9882 24.1424C41.0886 24.4172 41.3928 24.5585 41.6677 24.4581C41.9425 24.3577 42.0839 24.0535 41.9835 23.7786L40.7088 20.29C39.9897 18.3222 38.099 17 36.0038 17H34.2729C32.1778 17 30.2871 18.3222 29.568 20.29L25.7041 30.8648C25.0927 32.5381 25.7616 34.4112 27.2948 35.3185C27.8649 35.6559 28.5165 35.8343 29.1792 35.8343H29.183L26.4865 45.2627C26.4061 45.5441 26.5689 45.8373 26.8503 45.9178C26.8989 45.9317 26.948 45.9383 26.9962 45.9383C27.2267 45.9383 27.4388 45.7866 27.5053 45.554L30.2852 35.8342H31.7808L26.1731 51.7946C26.1426 51.8816 26.06 51.9402 25.9677 51.9402C25.8733 51.9402 25.8183 51.8859 25.7939 51.8535C25.7694 51.8212 25.7324 51.7533 25.7584 51.6626L26.9564 47.4737C27.0368 47.1923 26.874 46.8991 26.5927 46.8185C26.3113 46.7381 26.0181 46.9009 25.9376 47.1823L24.7396 51.3712C24.6283 51.7601 24.7043 52.1685 24.9478 52.4915C25.1914 52.8145 25.5631 52.9998 25.9677 52.9998C26.5091 52.9998 26.9934 52.6566 27.1729 52.1458L29.8364 44.5652C29.868 44.5489 29.8987 44.5302 29.9274 44.5069L34.9621 40.4279L40.083 44.3612C40.0872 44.3644 40.0917 44.3665 40.0959 44.3695L42.8282 52.1458C43.0077 52.6566 43.492 52.9998 44.0334 52.9998C44.438 52.9998 44.8097 52.8146 45.0533 52.4916C45.2967 52.1687 45.3727 51.7603 45.2614 51.3713ZM32.8087 36.1056L34.093 37.1883L33.2954 37.812L32.44 37.155L32.8087 36.1056ZM34.131 35.8344H35.8245L34.946 36.5214L34.131 35.8344ZM34.9208 37.8861L35.6537 38.5039L34.9445 39.0785L34.1633 38.4785L34.9208 37.8861ZM36.4921 37.8248L35.7738 37.2192L37.1934 36.109L37.5072 37.0022L36.4921 37.8248ZM30.4986 42.6805L32.0703 38.2071L34.0979 39.7644L30.4986 42.6805ZM35.8086 39.7422L37.8802 38.0638L39.4537 42.5419L35.8086 39.7422ZM44.2071 51.8537C44.1827 51.8861 44.1277 51.9403 44.0333 51.9403C43.941 51.9403 43.8584 51.8819 43.8278 51.7948L38.2201 35.8344H39.7158L44.2427 51.6627C44.2686 51.7535 44.2315 51.8214 44.2071 51.8537Z" fill="white"></path></g><defs><clipPath id="clip0_54_362"><rect width="36" height="36" fill="white" transform="translate(17 17)"></rect></clipPath></defs></svg> 