<?xml version="1.0" encoding="UTF-8"?> <svg xmlns="http://www.w3.org/2000/svg" width="70" height="70" viewBox="0 0 70 70" fill="none"><circle cx="35" cy="35" r="35" fill="#C59D5F"></circle><path d="M62.858 46.1538C64.2398 42.7059 65 38.9417 65 35C65 18.4315 51.5685 5 35 5C18.4315 5 5 18.4315 5 35C5 51.5685 18.4315 65 35 65C39.9944 65 44.7038 63.7795 48.8462 61.6206" stroke="white" stroke-linecap="round"></path><g clip-path="url(#clip0_54_380)"><path d="M43.2874 46.5735C43.42 46.5735 43.5508 46.5238 43.6513 46.4299C43.8059 46.2852 43.86 46.0627 43.7894 45.8633L37.8653 29.1311C37.9065 28.9229 37.9285 28.7079 37.9285 28.4876V23.7349C37.9285 23.7126 37.9277 23.6907 37.9271 23.6687L37.9263 23.6495C37.9189 23.3611 37.6827 23.1312 37.3943 23.1312H36.5028V19.4335C36.5028 18.0918 35.411 17 34.0693 17C32.7273 17 31.6355 18.0918 31.6355 19.4335V23.1312H30.744C30.4553 23.1312 30.2194 23.3611 30.2117 23.6495L30.2112 23.6687C30.2103 23.6907 30.2095 23.7126 30.2095 23.7349V28.4876C30.2095 28.6971 30.2301 28.902 30.2675 29.1009C30.2633 29.1105 30.2592 29.1201 30.2557 29.13L28.5443 33.9637C28.4459 34.2408 28.5912 34.5452 28.8684 34.6432C28.9271 34.6641 28.987 34.674 29.0461 34.674C29.2652 34.674 29.4707 34.5375 29.5479 34.3191L30.8981 30.5058C31.3416 31.0812 31.9692 31.5077 32.6924 31.695L28.3731 43.894L25.7595 45.0195L28.761 36.5419C28.859 36.2648 28.714 35.9605 28.4369 35.8622C28.16 35.7641 27.8554 35.9091 27.7571 36.1865L24.3489 45.8127C24.2783 46.0121 24.3326 46.2346 24.487 46.3794C24.5875 46.4733 24.7183 46.523 24.8509 46.523C24.9221 46.523 24.9935 46.5087 25.0616 46.4796L29.0082 44.78C29.1444 44.7213 29.2499 44.6086 29.2996 44.4686L33.7847 31.8005H34.336L38.839 44.5191C38.8884 44.6589 38.9942 44.7718 39.1304 44.8303L43.077 46.5299C43.1448 46.5593 43.2162 46.5735 43.2874 46.5735ZM32.7004 19.4335C32.7004 18.6787 33.3142 18.0648 34.069 18.0648C34.8238 18.0648 35.4376 18.6787 35.4376 19.4335V23.1312H32.7004V19.4335ZM31.2746 28.4876V24.196H36.8637V28.4876C36.8637 29.7271 35.8554 30.7357 34.6159 30.7357H33.5227C32.2832 30.7357 31.2746 29.7271 31.2746 28.4876ZM39.7651 43.9445L35.4294 31.6992C36.1531 31.5157 36.7818 31.0933 37.2278 30.5217L42.3788 45.0701L39.7651 43.9445Z" fill="white"></path><path d="M22.1394 46.5268C21.949 46.3027 21.6131 46.2752 21.389 46.4656C21.1649 46.6559 21.1374 46.9918 21.3277 47.2159C21.5642 47.4947 21.8131 47.7685 22.0674 48.0303C22.1718 48.138 22.3105 48.1918 22.4495 48.1918C22.5829 48.1918 22.7167 48.1418 22.8202 48.0413C23.0312 47.8367 23.0361 47.4994 22.8312 47.2884C22.5934 47.0437 22.3607 46.7872 22.1394 46.5268Z" fill="white"></path><path d="M37.9729 51.3649C37.6441 51.4572 37.3082 51.5396 36.9742 51.6094C36.6864 51.6698 36.5018 51.9521 36.5622 52.2397C36.6147 52.4907 36.8361 52.6632 37.0827 52.6632C37.119 52.6632 37.1558 52.6594 37.1926 52.6517C37.5499 52.5767 37.9094 52.4888 38.2613 52.3899C38.5442 52.3103 38.7092 52.0164 38.6296 51.7332C38.5499 51.4501 38.2558 51.2855 37.9729 51.3649Z" fill="white"></path><path d="M25.3597 49.3888C25.0754 49.2001 24.7936 48.9991 24.5222 48.7915C24.2885 48.6127 23.9542 48.6571 23.7757 48.8906C23.5969 49.1243 23.6414 49.4583 23.8749 49.6371C24.1652 49.8591 24.4665 50.0741 24.7708 50.276C24.8612 50.3361 24.9636 50.365 25.0647 50.365C25.2372 50.365 25.4064 50.2815 25.5088 50.1268C25.6714 49.8821 25.6047 49.5517 25.3597 49.3888Z" fill="white"></path><path d="M28.2763 50.9016C27.9583 50.778 27.64 50.642 27.3307 50.497C27.0643 50.3723 26.7473 50.4871 26.6226 50.7533C26.4979 51.0197 26.6127 51.3367 26.8789 51.4614C27.2101 51.6165 27.5504 51.7621 27.8907 51.8942C27.9542 51.9189 28.0193 51.9305 28.0833 51.9305C28.2967 51.9305 28.498 51.8014 28.5798 51.5907C28.6864 51.3166 28.5505 51.0079 28.2763 50.9016Z" fill="white"></path><path d="M31.449 51.7529C31.1115 51.7005 30.7714 51.6359 30.4385 51.561C30.1518 51.4964 29.8667 51.6766 29.8022 51.9636C29.7376 52.2504 29.9178 52.5354 30.2045 52.6C30.5608 52.6802 30.9244 52.7491 31.2859 52.8054C31.3136 52.8096 31.3411 52.8118 31.3683 52.8118C31.6262 52.8118 31.8528 52.6239 31.8937 52.3608C31.9387 52.0702 31.7396 51.7983 31.449 51.7529Z" fill="white"></path><path d="M34.733 51.9083C34.3921 51.9283 34.0452 51.9374 33.7041 51.9346C33.7027 51.9346 33.7016 51.9346 33.7003 51.9346C33.408 51.9346 33.1699 52.1706 33.168 52.4633C33.1658 52.7575 33.4025 52.9976 33.6967 52.9995C33.7371 52.9998 33.7777 53 33.8181 53C34.143 53 34.4718 52.9904 34.7956 52.9715C35.0892 52.9542 35.3131 52.702 35.2958 52.4087C35.2785 52.1151 35.0282 51.8912 34.733 51.9083Z" fill="white"></path><path d="M46.7476 45.8009C46.5136 45.6224 46.1796 45.6674 46.0014 45.9012C45.7943 46.1725 45.5754 46.4406 45.3504 46.6977C45.1568 46.919 45.1793 47.2555 45.4007 47.4491C45.5018 47.5373 45.6267 47.5807 45.7509 47.5807C45.8992 47.5807 46.0467 47.5192 46.1519 47.3986C46.3925 47.1237 46.6268 46.8372 46.8479 46.5471C47.0264 46.3134 46.9814 45.9792 46.7476 45.8009Z" fill="white"></path><path d="M48.4096 42.8349C48.1434 42.7105 47.8265 42.8256 47.702 43.0923C47.5581 43.4005 47.4016 43.7086 47.2362 44.008C47.0942 44.2654 47.1879 44.5892 47.4452 44.7312C47.5268 44.7762 47.615 44.7976 47.702 44.7976C47.8896 44.7976 48.0714 44.6982 48.1687 44.5224C48.3453 44.2022 48.5128 43.8726 48.6669 43.5425C48.7913 43.276 48.676 42.9591 48.4096 42.8349Z" fill="white"></path><path d="M49.3971 39.5794C49.1098 39.5151 48.8252 39.6958 48.761 39.9826C48.6863 40.3163 48.5995 40.6511 48.5025 40.9779C48.419 41.26 48.58 41.5564 48.862 41.6399C48.9123 41.6547 48.9634 41.6618 49.0134 41.6618C49.243 41.6618 49.455 41.5119 49.5237 41.2803C49.6272 40.9307 49.7204 40.5723 49.8003 40.2155C49.8646 39.9285 49.6841 39.6437 49.3971 39.5794Z" fill="white"></path><path d="M41.0232 50.1378C40.7213 50.2988 40.4104 50.4518 40.0992 50.5918C39.8312 50.7127 39.7114 51.028 39.8323 51.2961C39.921 51.4933 40.1149 51.61 40.3181 51.61C40.3912 51.61 40.4653 51.5949 40.5365 51.5628C40.8694 51.4128 41.202 51.2494 41.5247 51.0769C41.7843 50.9385 41.882 50.616 41.7436 50.3564C41.6052 50.0972 41.2827 49.9991 41.0232 50.1378Z" fill="white"></path><path d="M43.7394 48.2866C43.4791 48.5082 43.2082 48.7238 42.9339 48.9274C42.6977 49.1026 42.6485 49.436 42.8237 49.6722C42.9281 49.8129 43.0888 49.8873 43.2516 49.8873C43.3618 49.8873 43.473 49.8532 43.5686 49.7824C43.8616 49.5648 44.1514 49.3344 44.4296 49.0974C44.6535 48.9068 44.6804 48.5709 44.4901 48.347C44.2995 48.1229 43.9633 48.096 43.7394 48.2866Z" fill="white"></path><path d="M35.7868 27.1162C35.7868 26.1659 35.0136 25.3927 34.0633 25.3927C33.113 25.3927 32.3398 26.1659 32.3398 27.1162C32.3398 28.0665 33.113 28.8397 34.0633 28.8397C35.0136 28.8397 35.7868 28.0668 35.7868 27.1162ZM33.4047 27.1162C33.4047 26.7531 33.7002 26.4576 34.0633 26.4576C34.4264 26.4576 34.722 26.7531 34.722 27.1162C34.722 27.4793 34.4264 27.7748 34.0633 27.7748C33.7002 27.7748 33.4047 27.4796 33.4047 27.1162Z" fill="white"></path><path d="M23.1718 44.1144L19.815 43.2347C19.7938 43.2292 19.7727 43.2254 19.7515 43.2223C19.7468 43.221 19.7422 43.2193 19.7375 43.2182C19.4524 43.1465 19.1629 43.3196 19.0912 43.6047L18.2115 47.1035C18.1398 47.3889 18.3129 47.6781 18.5979 47.7498C18.6416 47.7608 18.6853 47.766 18.7281 47.766C18.9665 47.766 19.1835 47.6051 19.2442 47.3634L19.8103 45.1117C19.8408 45.1617 19.8713 45.2122 19.902 45.262C20.0031 45.424 20.1767 45.513 20.3547 45.513C20.4508 45.513 20.548 45.4869 20.6354 45.4325C20.885 45.2771 20.9617 44.9488 20.8062 44.6992C20.7807 44.6583 20.7559 44.6168 20.7307 44.5756L22.9018 45.1447C22.9472 45.1565 22.9925 45.1623 23.0373 45.1623C23.2735 45.1623 23.4893 45.0038 23.552 44.7645C23.6267 44.48 23.4564 44.1889 23.1718 44.1144Z" fill="white"></path><path d="M51.2656 35.7495H47.9974C47.7032 35.7495 47.4648 35.9879 47.4648 36.2818C47.4648 36.576 47.7032 36.8144 47.9974 36.8144H49.1298C49.126 37.125 49.1133 37.4378 49.0911 37.7457C49.0699 38.0391 49.2905 38.2939 49.5836 38.3151C49.5967 38.3162 49.6096 38.3167 49.6226 38.3167C49.8991 38.3167 50.1329 38.1028 50.1532 37.8226C50.1774 37.4892 50.1908 37.1505 50.1949 36.8144H51.2656C51.5597 36.8144 51.7981 36.576 51.7981 36.2818C51.7981 35.9879 51.5597 35.7495 51.2656 35.7495Z" fill="white"></path></g><defs><clipPath id="clip0_54_380"><rect width="36" height="36" fill="white" transform="translate(17 17)"></rect></clipPath></defs></svg> 