<?xml version="1.0" encoding="UTF-8"?> <svg xmlns="http://www.w3.org/2000/svg" width="70" height="70" viewBox="0 0 70 70" fill="none"><circle cx="35" cy="35" r="35" fill="#C59D5F"></circle><path d="M62.858 46.1538C64.2398 42.7059 65 38.9417 65 35C65 18.4315 51.5685 5 35 5C18.4315 5 5 18.4315 5 35C5 51.5685 18.4315 65 35 65C39.9944 65 44.7038 63.7795 48.8462 61.6206" stroke="white" stroke-linecap="round"></path><g clip-path="url(#clip0_54_214)"><path d="M41.9264 30.1155C41.9604 30.0794 41.9944 30.0432 42.0279 30.0064C43.3308 28.5729 44.0484 26.7158 44.0484 24.7772C44.0483 20.4888 40.5595 17 36.2712 17C31.9828 17 28.494 20.4888 28.494 24.7772C28.494 26.678 29.179 28.4888 30.4282 29.9091C30.0674 30.3365 29.768 30.8275 29.5495 31.3737C28.7124 33.4651 29.2872 35.8686 30.9796 37.3543C30.9893 37.3629 30.9927 37.3766 30.9879 37.3887L29.1147 42.0691C29.0065 42.3395 29.138 42.6464 29.4084 42.7546C29.4725 42.7803 29.5389 42.7924 29.6041 42.7924C29.8133 42.7924 30.0113 42.6671 30.0938 42.4609L31.967 37.7805C32.1376 37.3544 32.0204 36.8646 31.6753 36.5617C30.3182 35.3702 29.8573 33.4428 30.5285 31.7655C31.2112 30.0597 32.8719 29.0208 34.632 29.0819C34.4134 29.2403 34.205 29.4163 34.009 29.6094C32.9854 30.6182 32.4218 31.9651 32.4218 33.402C32.4218 35.0821 33.2155 36.6311 34.4998 37.6217C34.4672 37.6217 34.4346 37.6221 34.4021 37.6215C34.3944 37.6213 34.3868 37.6212 34.3792 37.6212C33.9549 37.6212 33.5702 37.8714 33.3948 38.2635L32.0405 41.2901C31.8945 41.6163 31.7883 41.9601 31.7248 42.312C31.6456 42.752 31.5043 43.1465 31.305 43.4846L31.1149 43.8068C30.8878 44.1921 30.7208 44.6083 30.6187 45.0436L30.5256 45.441C30.4352 45.8268 30.2785 46.19 30.0589 46.5221C29.8248 46.876 29.6437 47.2611 29.5204 47.6669L29.3681 48.1683C29.0695 49.1519 28.3506 49.9349 27.3959 50.3164L27.2558 50.3724C27.1599 50.4106 27.0927 50.3638 27.0613 50.3324C27.0299 50.301 26.983 50.2339 27.0214 50.1378L29.355 44.3068C29.4632 44.0364 29.3317 43.7295 29.0614 43.6213C28.791 43.5131 28.4841 43.6445 28.3759 43.9149L26.0423 49.7459C25.8556 50.2122 25.9602 50.7226 26.3154 51.0779C26.5541 51.3168 26.8631 51.4425 27.1819 51.4425C27.337 51.4425 27.4945 51.4127 27.6473 51.3517L27.7874 51.2957C29.0411 50.7947 29.985 49.7665 30.3773 48.4747L30.5296 47.9734C30.6232 47.6652 30.7608 47.3727 30.9396 47.1023C31.2272 46.6674 31.4334 46.1894 31.5524 45.6817L31.6456 45.2843C31.7233 44.9527 31.8504 44.6358 32.0234 44.3424L32.2134 44.0201C32.4765 43.574 32.6613 43.0622 32.7628 42.499C32.8112 42.231 32.8921 41.9691 33.0032 41.7206L34.3575 38.6941C34.3627 38.6826 34.3728 38.6758 34.3796 38.6758H34.3798C34.9004 38.6865 35.4202 38.621 35.9238 38.4804C35.9476 38.4737 35.9702 38.465 35.9923 38.4555V47.122C35.9923 47.4133 36.2284 47.6494 36.5196 47.6494C36.8108 47.6494 37.0469 47.4133 37.0469 47.122V38.4519C37.0469 37.9929 36.7561 37.5817 36.3232 37.4287C34.6205 36.8268 33.4765 35.2086 33.4765 33.402C33.4765 32.2496 33.9286 31.1695 34.7494 30.3604C35.5699 29.5516 36.6579 29.1139 37.8104 29.1321C38.7837 29.1463 39.6864 29.5 40.4045 30.0777C40.0642 30.3435 39.7009 30.5759 39.3186 30.7706C38.9463 30.3026 38.3724 30.0017 37.7294 30.0017C36.6097 30.0017 35.6988 30.9126 35.6988 32.0322C35.6988 33.1518 36.6097 34.0627 37.7294 34.0627C38.849 34.0627 39.7599 33.1518 39.7599 32.0322C39.7599 31.933 39.7524 31.8355 39.7386 31.7401C40.2368 31.4917 40.7085 31.1895 41.1453 30.8376C41.6718 31.5294 41.9943 32.3818 42.0158 33.2991C42.0583 35.1136 40.9463 36.7614 39.2486 37.3993C38.8429 37.5518 38.5694 37.9327 38.5519 38.3697L38.4192 41.6827C38.4048 42.0398 38.434 42.3984 38.5059 42.7487C38.5957 43.1866 38.6111 43.6054 38.5516 43.9934L38.495 44.3632C38.4272 44.8052 38.4269 45.2535 38.4938 45.6958L38.5551 46.0995C38.6144 46.4911 38.6039 46.8865 38.5234 47.2766C38.4376 47.692 38.4126 48.117 38.4489 48.5396L38.4938 49.0615C38.5819 50.0857 38.2055 51.0797 37.461 51.7886L37.3517 51.8926C37.2766 51.9639 37.197 51.9453 37.1561 51.9278C37.1153 51.9103 37.0468 51.8655 37.0468 51.762V49.2313C37.0468 48.9401 36.8107 48.704 36.5195 48.704C36.2282 48.704 35.9921 48.9401 35.9921 49.2313V51.7621C35.9921 52.2644 36.2789 52.6994 36.7406 52.8972C36.9015 52.9662 37.0687 52.9999 37.2335 52.9999C37.5416 52.9999 37.8419 52.8821 38.0788 52.6565L38.1881 52.5525C39.1659 51.6216 39.6603 50.3162 39.5445 48.9711L39.4996 48.4491C39.472 48.1282 39.491 47.8055 39.5566 47.488C39.6621 46.9773 39.6759 46.4569 39.5978 45.9415L39.5366 45.5379C39.4856 45.201 39.4858 44.8596 39.5374 44.523L39.5941 44.1532C39.6726 43.6414 39.654 43.0975 39.539 42.5368C39.4842 42.27 39.462 41.9969 39.473 41.725L39.6057 38.4119C39.6062 38.3992 39.6132 38.389 39.6196 38.3866C41.7365 37.591 43.1232 35.5365 43.0701 33.2744C43.0429 32.1177 42.6403 31.0179 41.9264 30.1155ZM37.7294 31.0563C37.9181 31.0563 38.0939 31.1111 38.2434 31.2042C37.8275 31.3316 37.398 31.4203 36.9592 31.4649C36.9506 31.4657 36.9424 31.4675 36.934 31.4687C37.111 31.2196 37.4012 31.0563 37.7294 31.0563ZM37.7294 33.0081C37.3597 33.0081 37.0374 32.8015 36.8719 32.4976C36.9166 32.51 36.9636 32.5168 37.0118 32.5168C37.0296 32.5168 37.0477 32.5159 37.0658 32.5141C37.6238 32.4574 38.1694 32.3406 38.6946 32.1685C38.6279 32.6422 38.2211 33.0081 37.7294 33.0081ZM36.1236 28.3282C36.0677 28.281 36.0014 28.2444 35.9263 28.2233C34.2294 27.7471 32.483 28.1472 31.1868 29.1745C30.1284 27.9528 29.5487 26.4031 29.5487 24.7772C29.5487 21.0704 32.5643 18.0546 36.2712 18.0546C39.9781 18.0546 42.9937 21.0704 42.9937 24.7772C42.9937 26.4529 42.3735 28.0581 41.2474 29.2971C41.2298 29.3166 41.2111 29.3349 41.1932 29.3541C40.249 28.5469 39.0682 28.0957 37.8258 28.0777C37.2389 28.0682 36.6662 28.1552 36.1236 28.3282Z" fill="white"></path></g><defs><clipPath id="clip0_54_214"><rect width="36" height="36" fill="white" transform="translate(17 17)"></rect></clipPath></defs></svg> 