<?xml version="1.0" encoding="UTF-8"?> <svg xmlns="http://www.w3.org/2000/svg" width="70" height="70" viewBox="0 0 70 70" fill="none"><circle cx="35" cy="35" r="35" fill="#C59D5F"></circle><path d="M7.14196 23.8461C5.76019 27.2941 5 31.0583 5 35C5 51.5685 18.4315 65 35 65C51.5685 65 65 51.5685 65 35C65 18.4315 51.5685 5 35 5C30.0056 5 25.2962 6.22046 21.1539 8.37943" stroke="white" stroke-linecap="round"></path><path d="M51.418 18.8828H23.8506C23.5594 18.8828 23.3233 19.1189 23.3233 19.4102C23.3233 19.7014 23.5594 19.9375 23.8506 19.9375H51.418C51.7088 19.9375 51.9453 20.174 51.9453 20.4648V38.9425H46.1211C45.8298 38.9425 45.5938 39.1786 45.5938 39.4698C45.5938 39.7611 45.8298 39.9972 46.1211 39.9972H51.9453V42.6656C51.9453 42.9563 51.7088 43.1929 51.418 43.1929H18.582C18.2912 43.1929 18.0547 42.9563 18.0547 42.6656V39.9972H44.0117C44.303 39.9972 44.5391 39.7611 44.5391 39.4698C44.5391 39.1786 44.303 38.9425 44.0117 38.9425H18.0547V20.4648C18.0547 20.174 18.2912 19.9375 18.582 19.9375H21.7412C22.0325 19.9375 22.2686 19.7014 22.2686 19.4102C22.2686 19.1189 22.0325 18.8828 21.7412 18.8828H18.582C17.7097 18.8828 17 19.5925 17 20.4648V42.6656C17 43.5379 17.7097 44.2476 18.582 44.2476H30.7757L30.3815 48.104H28.9239C27.9385 48.104 27.1368 48.9057 27.1368 49.8911V50.1089C27.1368 50.6648 27.5891 51.1171 28.145 51.1171H41.8549C42.4109 51.1171 42.8632 50.6648 42.8632 50.1089V49.8911C42.8632 48.9057 42.0615 48.104 41.0761 48.104H39.6185L39.2243 44.2476H51.418C52.2903 44.2476 53 43.5379 53 42.6656V20.4648C53 19.5925 52.2903 18.8828 51.418 18.8828ZM41.8085 49.8911V50.0625H28.1914V49.8911C28.1914 49.4872 28.52 49.1587 28.9239 49.1587H41.0761C41.4799 49.1587 41.8085 49.4872 41.8085 49.8911ZM38.5583 48.104H31.4416L31.8358 44.2476H38.1641L38.5583 48.104Z" fill="white"></path><path d="M20.2246 24.5704C20.2246 25.4064 20.9047 26.0865 21.7408 26.0865C22.073 26.0865 22.3795 25.9779 22.6296 25.796L23.7267 26.2614V31.9239C23.7267 32.1324 23.8495 32.3212 24.04 32.4058L29.0367 34.625L29.0373 34.6252C29.0375 34.6253 29.0377 34.6254 29.038 34.6255L31.2798 35.6141C31.2736 35.6696 31.2698 35.7258 31.2698 35.7829C31.2698 36.619 31.9499 37.299 32.7859 37.299C33.6219 37.299 34.3019 36.6189 34.3019 35.7829C34.3019 34.9469 33.6218 34.2669 32.7859 34.2669C32.3889 34.2669 32.0281 34.4215 31.7575 34.6721L30.5538 34.1413L34.4614 32.4058C34.652 32.3212 34.7747 32.1323 34.7747 31.9239V25.8176C34.7747 25.8165 34.7745 25.8154 34.7745 25.8142C34.7797 25.6074 34.6623 25.408 34.4614 25.3188L29.4647 23.0996C29.3285 23.0391 29.1729 23.0391 29.0367 23.0996L24.1208 25.2828L23.2196 24.9005C23.2434 24.794 23.257 24.6838 23.257 24.5703C23.257 23.7343 22.5768 23.0542 21.7409 23.0542C20.9047 23.0543 20.2246 23.7344 20.2246 24.5704ZM24.7813 26.6289L28.7232 28.3796V33.3318L24.7813 31.5811V26.6289ZM32.7857 35.3216C33.0402 35.3216 33.2471 35.5286 33.2471 35.7829C33.2471 36.0374 33.0401 36.2443 32.7857 36.2443C32.5313 36.2443 32.3243 36.0373 32.3243 35.7829C32.3243 35.5286 32.5313 35.3216 32.7857 35.3216ZM33.72 31.5811L29.778 33.3318V28.3797L33.72 26.629V31.5811ZM29.2506 24.1586L32.9671 25.8092L29.2506 27.4598L25.5341 25.8092L29.2506 24.1586ZM22.2021 24.5704C22.2021 24.8249 21.9951 25.0318 21.7408 25.0318C21.4863 25.0318 21.2793 24.8248 21.2793 24.5704C21.2793 24.316 21.4863 24.109 21.7408 24.109C21.9951 24.109 22.2021 24.316 22.2021 24.5704Z" fill="white"></path><path d="M41.4628 25.442C41.4647 25.442 41.4666 25.442 41.4685 25.4419L48.2495 25.3707C48.5407 25.3677 48.7743 25.1291 48.7713 24.8379C48.7682 24.5466 48.5288 24.3129 48.2384 24.3161L41.4574 24.3873C41.1661 24.3903 40.9326 24.6289 40.9356 24.9201C40.9387 25.2095 41.1741 25.442 41.4628 25.442Z" fill="white"></path><path d="M41.4628 28.8309C41.4647 28.8309 41.4666 28.8309 41.4685 28.8308L48.2495 28.7595C48.5407 28.7565 48.7743 28.5179 48.7713 28.2267C48.7682 27.9354 48.5288 27.7014 48.2384 27.7049L41.4574 27.7761C41.1661 27.7792 40.9326 28.0178 40.9356 28.3089C40.9387 28.5984 41.1741 28.8309 41.4628 28.8309Z" fill="white"></path><path d="M41.4628 30.9804C41.4647 30.9804 41.4666 30.9804 41.4685 30.9803L48.2495 30.9091C48.5407 30.906 48.7743 30.6675 48.7713 30.3762C48.7682 30.0849 48.5288 29.8523 48.2384 29.8544L41.4574 29.9257C41.1661 29.9287 40.9326 30.1673 40.9356 30.4585C40.9387 30.7478 41.1741 30.9804 41.4628 30.9804Z" fill="white"></path><path d="M40.9355 35.0746C40.9355 35.6765 41.4253 36.1662 42.0272 36.1662H47.6796C48.2816 36.1662 48.7712 35.6765 48.7712 35.0746V33.6523C48.7712 33.0504 48.2815 32.5607 47.6796 32.5607H42.0272C41.4252 32.5607 40.9355 33.0504 40.9355 33.6523V35.0746ZM41.9902 33.6523C41.9902 33.6319 42.0068 33.6154 42.0272 33.6154H47.6796C47.7 33.6154 47.7166 33.6319 47.7166 33.6523V35.0746C47.7166 35.0949 47.7 35.1115 47.6796 35.1115H42.0272C42.0068 35.1115 41.9902 35.0949 41.9902 35.0746V33.6523Z" fill="white"></path><path d="M22.6923 32.8331C22.4864 32.6272 22.1524 32.6272 21.9466 32.8331L21.7408 33.039L21.535 32.8331C21.3291 32.6272 20.9952 32.6272 20.7892 32.8331C20.5833 33.0391 20.5833 33.3729 20.7892 33.5788L20.9951 33.7847L20.7892 33.9906C20.5833 34.1965 20.5833 34.5305 20.7892 34.7364C20.8922 34.8393 21.0272 34.8909 21.1621 34.8909C21.297 34.8909 21.432 34.8394 21.535 34.7364L21.7408 34.5305L21.9466 34.7364C22.0495 34.8394 22.1845 34.8909 22.3194 34.8909C22.4544 34.8909 22.5894 34.8394 22.6923 34.7364C22.8982 34.5305 22.8982 34.1965 22.6923 33.9906L22.4865 33.7847L22.6923 33.5788C22.8982 33.3729 22.8982 33.039 22.6923 32.8331Z" fill="white"></path><path d="M35.5665 25.0956C35.6695 25.1987 35.8044 25.2501 35.9394 25.2501C36.0744 25.2501 36.2094 25.1987 36.3124 25.0956L37.4699 23.9382C37.6758 23.7322 37.6758 23.3984 37.4699 23.1924C37.2639 22.9866 36.9301 22.9865 36.7241 23.1924L36.5183 23.3982L36.3124 23.1924C36.1065 22.9864 35.7726 22.9864 35.5666 23.1924C35.3606 23.3983 35.3606 23.7322 35.5666 23.9382L35.7725 24.144L35.5666 24.3498C35.3606 24.5558 35.3606 24.8897 35.5665 25.0956Z" fill="white"></path></svg> 