<?xml version="1.0" encoding="UTF-8"?> <svg xmlns="http://www.w3.org/2000/svg" width="70" height="70" viewBox="0 0 70 70" fill="none"><circle cx="35" cy="35" r="35" fill="#C59D5F"></circle><path d="M23.8462 62.858C27.2941 64.2398 31.0583 65 35 65C51.5685 65 65 51.5685 65 35C65 18.4315 51.5685 5 35 5C18.4315 5 5 18.4315 5 35C5 39.9944 6.22047 44.7038 8.37943 48.8462" stroke="white" stroke-linecap="round"></path><path d="M47.9375 20.375C47.7883 20.375 47.6452 20.4343 47.5398 20.5398C47.4343 20.6452 47.375 20.7883 47.375 20.9375V23.75H22.625V20.9375C22.625 20.7883 22.5657 20.6452 22.4602 20.5398C22.3548 20.4343 22.2117 20.375 22.0625 20.375C21.0186 20.3762 20.0177 20.7914 19.2796 21.5296C18.5414 22.2677 18.1262 23.2686 18.125 24.3125V45.8056C18.1265 46.8181 18.5294 47.7887 19.2453 48.5047C19.9613 49.2206 20.9319 49.6235 21.9444 49.625H48.0556C49.0685 49.6235 50.0395 49.2203 50.7555 48.5039C51.4715 47.7875 51.8741 46.8163 51.875 45.8034V24.3125C51.8738 23.2686 51.4586 22.2677 50.7204 21.5296C49.9823 20.7914 48.9814 20.3762 47.9375 20.375ZM19.25 24.3125C19.2507 23.6644 19.4749 23.0363 19.8848 22.5342C20.2946 22.0321 20.8651 21.6867 21.5 21.5563V41.7894C20.6447 41.9131 19.8539 42.3152 19.25 42.9335V24.3125ZM50.75 45.8056C50.7485 46.5198 50.4642 47.2042 49.9592 47.7092C49.4542 48.2142 48.7698 48.4985 48.0556 48.5H21.9444C21.2298 48.4985 20.545 48.2139 20.04 47.7084C19.535 47.2029 19.2509 46.5179 19.25 45.8034V45.6875C19.2509 44.9419 19.5475 44.227 20.0747 43.6997C20.602 43.1725 21.3169 42.8759 22.0625 42.875C22.2117 42.875 22.3548 42.8157 22.4602 42.7102C22.5657 42.6048 22.625 42.4617 22.625 42.3125V24.875H47.375V42.3125C47.375 42.4617 47.4343 42.6048 47.5398 42.7102C47.6452 42.8157 47.7883 42.875 47.9375 42.875C48.6831 42.8759 49.398 43.1725 49.9253 43.6997C50.4525 44.227 50.7491 44.9419 50.75 45.6875V45.8056ZM50.75 42.9341C50.1461 42.3158 49.3553 41.9137 48.5 41.7899V21.5563C49.1349 21.6867 49.7054 22.0321 50.1152 22.5342C50.5251 23.0363 50.7493 23.6644 50.75 24.3125V42.9341Z" fill="white"></path><path d="M45.6875 28.25H29.375C29.2258 28.25 29.0827 28.3093 28.9773 28.4148C28.8718 28.5202 28.8125 28.6633 28.8125 28.8125V32.75H24.3125C24.1633 32.75 24.0202 32.8093 23.9148 32.9148C23.8093 33.0202 23.75 33.1633 23.75 33.3125V44.5625C23.75 44.7117 23.8093 44.8548 23.9148 44.9602C24.0202 45.0657 24.1633 45.125 24.3125 45.125H37.8125C37.9617 45.125 38.1048 45.0657 38.2102 44.9602C38.3157 44.8548 38.375 44.7117 38.375 44.5625V37.25H42.3125C42.4617 37.25 42.6048 37.1907 42.7102 37.0852C42.8157 36.9798 42.875 36.8367 42.875 36.6875C42.875 36.5383 42.8157 36.3952 42.7102 36.2898C42.6048 36.1843 42.4617 36.125 42.3125 36.125H32.1875C32.0383 36.125 31.8952 36.1843 31.7898 36.2898C31.6843 36.3952 31.625 36.5383 31.625 36.6875V39.5C31.625 39.6492 31.6843 39.7923 31.7898 39.8977C31.8952 40.0032 32.0383 40.0625 32.1875 40.0625C32.3367 40.0625 32.4798 40.0032 32.5852 39.8977C32.6907 39.7923 32.75 39.6492 32.75 39.5V37.25H37.25V44H32.75V41.75C32.75 41.6008 32.6907 41.4577 32.5852 41.3523C32.4798 41.2468 32.3367 41.1875 32.1875 41.1875C32.0383 41.1875 31.8952 41.2468 31.7898 41.3523C31.6843 41.4577 31.625 41.6008 31.625 41.75V44H24.875V39.5H29.375C29.5242 39.5 29.6673 39.4407 29.7727 39.3352C29.8782 39.2298 29.9375 39.0867 29.9375 38.9375C29.9375 38.7883 29.8782 38.6452 29.7727 38.5398C29.6673 38.4343 29.5242 38.375 29.375 38.375H24.875V33.875H29.375C29.5242 33.875 29.6673 33.8157 29.7727 33.7102C29.8782 33.6048 29.9375 33.4617 29.9375 33.3125V29.375H37.25V33.875C37.25 34.0242 37.3093 34.1673 37.4148 34.2727C37.5202 34.3782 37.6633 34.4375 37.8125 34.4375C37.9617 34.4375 38.1048 34.3782 38.2102 34.2727C38.3157 34.1673 38.375 34.0242 38.375 33.875V29.375H41.2263C41.3525 30.3649 41.8039 31.2849 42.5095 31.9905C43.2151 32.6961 44.1351 33.1475 45.125 33.2737V44H40.625C40.4758 44 40.3327 44.0593 40.2273 44.1648C40.1218 44.2702 40.0625 44.4133 40.0625 44.5625C40.0625 44.7117 40.1218 44.8548 40.2273 44.9602C40.3327 45.0657 40.4758 45.125 40.625 45.125H45.6875C45.8367 45.125 45.9798 45.0657 46.0852 44.9602C46.1907 44.8548 46.25 44.7117 46.25 44.5625V28.8125C46.25 28.6633 46.1907 28.5202 46.0852 28.4148C45.9798 28.3093 45.8367 28.25 45.6875 28.25ZM42.3631 29.375H45.125V32.1369C44.4354 32.019 43.7994 31.69 43.3047 31.1953C42.81 30.7006 42.481 30.0646 42.3631 29.375Z" fill="white"></path></svg> 