<svg version="1.0" xmlns="http://www.w3.org/2000/svg" width="764" height="764" viewBox="0 0 573 573"><path d="M196 122.6c-1.9.8-33.1 18.6-69.2 39.5-43.2 25-66.3 39-67.5 40.7-1.7 2.5-1.8 7.3-2.1 83-.3 91.8-1 84.8 8.7 90.6 3.1 1.8 34.6 19.4 70 39.1 43.4 24.2 65.3 35.8 67.3 35.8 3.5 0 11.3-4 46.1-24 64.8-37.1 93.7-54.5 95.9-57.6l2.3-3.2.3-78c.2-56.2 0-79.2-.9-82.2-.6-2.2-2.5-5.5-4.3-7.2-1.7-1.6-29.9-18-62.6-36.4-32.8-18.3-61.6-34.7-64-36.3-8-5.5-13.7-6.5-20-3.8zm12.8 19.2c3.2 2.1 32 18.4 64 36.2l58.2 32.5v56c0 30.8.3 64.4.7 74.6l.6 18.5-33.4 19.6c-54.2 31.8-86.2 49.9-86.8 49.2-.3-.3-.8-33.2-1.1-73.1l-.5-72.5-3.5-3.1c-1.9-1.8-30.8-18.7-64.2-37.7-36.8-20.8-60.3-34.7-59.5-35.2 14.6-8.7 118.4-68.7 118.9-68.7.4-.1 3.4 1.6 6.6 3.7zm-74 115.2l58.9 33.4.6 69c.3 38 .5 69.1.4 69.2-.1.1-27.3-14.9-60.4-33.4L74 361.7v-69.5c0-44 .4-69.2 1-69 .5.1 27.4 15.4 59.8 33.8zm287.5-50c-5.5 2.2-5.4-.7-5.1 79.9l.3 74.3 2.4 1.9c3.2 2.6 7.7 2.4 10.6-.6l2.5-2.4v-73.5c0-52.8-.3-74.2-1.1-76-.7-1.4-2.5-3-4.2-3.6-1.6-.5-3-1-3.1-.9-.1 0-1.1.4-2.3.9z"/></svg>